<svg width="290" height="260" viewBox="0 0 290 260" fill="none" xmlns="http://www.w3.org/2000/svg">
<g style="mix-blend-mode:overlay">
<mask id="path-1-outside-1_620_7977" maskUnits="userSpaceOnUse" x="21.1875" y="7.125" width="249" height="246" fill="black">
<rect fill="white" x="21.1875" y="7.125" width="249" height="246"/>
<path d="M252.214 81.3637C259.338 74.2462 263.43 64.8009 263.43 54.9169C263.43 33.5644 244.836 16.1931 221.982 16.1931C203.644 16.1931 187.715 27.6412 182.418 43.4403C180.602 43.1979 178.782 42.9799 176.96 42.7862C169.027 27.2512 153.28 17.8344 152.552 17.4078L136.796 8.125L139.05 19.8534C136.696 18.8315 134.254 18.0198 131.754 17.4281L107.686 12.0656L120.793 26.9547H120.493C119.21 26.9547 118.49 27.0278 118.49 27.0278L99.6295 28.7828C95.6574 24.7849 90.9164 21.6116 85.685 19.4496C80.4537 17.2875 74.8375 16.1804 69.1668 16.1931C46.3125 16.1931 27.7191 33.5644 27.7191 54.9169C27.7191 64.8009 31.8071 74.2422 38.9261 81.3597C27.6738 98.6578 22.1875 122.119 22.1875 152.762C22.1875 222.804 102.545 251.875 145.568 251.875C188.591 251.875 268.949 222.804 268.949 152.762C268.949 122.119 263.463 98.6619 252.214 81.3637M114.234 41.1166C114.822 41.5391 115.381 42.0428 115.92 42.6156C113.444 42.8594 111.046 43.1316 108.714 43.4403C107.492 39.8125 105.718 36.3894 103.454 33.2881L114.234 41.1166M145.568 244.018C108.032 244.018 30.4129 218.908 30.4129 152.758C30.4129 119.133 37.1577 95.875 49.8782 80.0191C41.4555 74.4209 35.9444 65.2762 35.9444 54.9169C35.9444 37.8706 50.82 24.05 69.1668 24.05C86.6005 24.05 100.871 36.5341 102.249 52.4062C110.401 50.9316 119.214 50.0378 128.603 49.5666C126.777 43.6434 123.861 38.2119 119.194 34.8441C119.194 34.8441 119.662 34.8075 120.493 34.8075C122.706 34.8075 127.501 35.0756 132.938 37.0662C132.938 37.0662 134.04 29.7903 129.887 25.0737C129.887 25.0737 140.682 27.4788 146.103 34.4094C146.103 34.4094 149.331 29.8269 148.233 24.0906C148.233 24.0906 165.383 34.1981 171.285 50.1353C177.437 50.6594 183.31 51.4028 188.879 52.4103C190.257 36.5381 204.54 24.0541 221.978 24.0541C240.316 24.0541 255.2 37.8706 255.2 54.9209C255.2 65.2844 249.681 74.4291 241.254 80.0272C253.979 95.875 260.724 119.137 260.724 152.762C260.724 218.912 183.109 244.018 145.568 244.018Z"/>
</mask>
<path d="M252.214 81.3637C259.338 74.2462 263.43 64.8009 263.43 54.9169C263.43 33.5644 244.836 16.1931 221.982 16.1931C203.644 16.1931 187.715 27.6412 182.418 43.4403C180.602 43.1979 178.782 42.9799 176.96 42.7862C169.027 27.2512 153.28 17.8344 152.552 17.4078L136.796 8.125L139.05 19.8534C136.696 18.8315 134.254 18.0198 131.754 17.4281L107.686 12.0656L120.793 26.9547H120.493C119.21 26.9547 118.49 27.0278 118.49 27.0278L99.6295 28.7828C95.6574 24.7849 90.9164 21.6116 85.685 19.4496C80.4537 17.2875 74.8375 16.1804 69.1668 16.1931C46.3125 16.1931 27.7191 33.5644 27.7191 54.9169C27.7191 64.8009 31.8071 74.2422 38.9261 81.3597C27.6738 98.6578 22.1875 122.119 22.1875 152.762C22.1875 222.804 102.545 251.875 145.568 251.875C188.591 251.875 268.949 222.804 268.949 152.762C268.949 122.119 263.463 98.6619 252.214 81.3637M114.234 41.1166C114.822 41.5391 115.381 42.0428 115.92 42.6156C113.444 42.8594 111.046 43.1316 108.714 43.4403C107.492 39.8125 105.718 36.3894 103.454 33.2881L114.234 41.1166M145.568 244.018C108.032 244.018 30.4129 218.908 30.4129 152.758C30.4129 119.133 37.1577 95.875 49.8782 80.0191C41.4555 74.4209 35.9444 65.2762 35.9444 54.9169C35.9444 37.8706 50.82 24.05 69.1668 24.05C86.6005 24.05 100.871 36.5341 102.249 52.4062C110.401 50.9316 119.214 50.0378 128.603 49.5666C126.777 43.6434 123.861 38.2119 119.194 34.8441C119.194 34.8441 119.662 34.8075 120.493 34.8075C122.706 34.8075 127.501 35.0756 132.938 37.0662C132.938 37.0662 134.04 29.7903 129.887 25.0737C129.887 25.0737 140.682 27.4788 146.103 34.4094C146.103 34.4094 149.331 29.8269 148.233 24.0906C148.233 24.0906 165.383 34.1981 171.285 50.1353C177.437 50.6594 183.31 51.4028 188.879 52.4103C190.257 36.5381 204.54 24.0541 221.978 24.0541C240.316 24.0541 255.2 37.8706 255.2 54.9209C255.2 65.2844 249.681 74.4291 241.254 80.0272C253.979 95.875 260.724 119.137 260.724 152.762C260.724 218.912 183.109 244.018 145.568 244.018Z" fill="white"/>
<path d="M182.418 43.4403L182.366 43.83L182.688 43.873L182.791 43.5653L182.418 43.4403ZM176.96 42.7862L176.61 42.9651L176.707 43.1547L176.919 43.1772L176.96 42.7862ZM152.552 17.4078L152.352 17.7466L152.353 17.747L152.552 17.4078ZM136.796 8.125L136.995 7.78625L136.245 7.34439L136.41 8.1992L136.796 8.125ZM139.05 19.8534L138.893 20.2141L139.576 20.5107L139.436 19.7792L139.05 19.8534ZM131.754 17.4281L131.844 17.0455L131.839 17.0444L131.754 17.4281ZM107.686 12.0656L107.772 11.6819L106.593 11.4193L107.391 12.3254L107.686 12.0656ZM120.793 26.9547V27.3479H121.663L121.088 26.6949L120.793 26.9547ZM118.49 27.0278L118.527 27.4193L118.53 27.419L118.49 27.0278ZM99.6295 28.7828L99.3505 29.0599L99.4812 29.1915L99.6659 29.1743L99.6295 28.7828ZM69.1668 16.1931V16.5863L69.1676 16.5863L69.1668 16.1931ZM38.9261 81.3597L39.2557 81.5741L39.4295 81.307L39.2041 81.0816L38.9261 81.3597ZM115.92 42.6156L115.958 43.0069L116.754 42.9286L116.206 42.3462L115.92 42.6156ZM108.714 43.4403L108.342 43.5659L108.445 43.8726L108.766 43.8301L108.714 43.4403ZM103.454 33.2881L103.685 32.97L103.137 33.52L103.454 33.2881ZM49.8782 80.0191L50.1849 80.2651L50.454 79.9297L50.0959 79.6916L49.8782 80.0191ZM102.249 52.4062L101.858 52.4402L101.895 52.8699L102.319 52.7931L102.249 52.4062ZM128.603 49.5666L128.623 49.9592L129.128 49.9339L128.979 49.4507L128.603 49.5666ZM119.194 34.8441L119.163 34.4521L118.094 34.5355L118.963 35.1629L119.194 34.8441ZM132.938 37.0662L132.803 37.4355L133.255 37.6009L133.327 37.1251L132.938 37.0662ZM129.887 25.0737L129.972 24.69L128.793 24.4274L129.591 25.3336L129.887 25.0737ZM146.103 34.4094L145.793 34.6516L146.119 35.0687L146.424 34.6358L146.103 34.4094ZM148.233 24.0906L148.433 23.7519L147.684 23.3103L147.847 24.1645L148.233 24.0906ZM171.285 50.1353L170.916 50.2718L171.003 50.5059L171.251 50.5271L171.285 50.1353ZM188.879 52.4103L188.809 52.7972L189.233 52.874L189.271 52.4443L188.879 52.4103ZM241.254 80.0272L241.036 79.6997L240.678 79.9378L240.947 80.2733L241.254 80.0272ZM252.492 81.6419C259.685 74.4548 263.823 64.911 263.823 54.9169H263.036C263.036 64.6909 258.99 74.0377 251.936 81.0856L252.492 81.6419ZM263.823 54.9169C263.823 33.3225 245.028 15.7999 221.982 15.7999V16.5863C244.645 16.5863 263.036 33.8063 263.036 54.9169H263.823ZM221.982 15.7999C203.484 15.7999 187.399 27.3471 182.045 43.3153L182.791 43.5653C188.031 27.9354 203.803 16.5863 221.982 16.5863V15.7999ZM182.47 43.0506C180.65 42.8077 178.827 42.5893 177.002 42.3953L176.919 43.1772C178.737 43.3705 180.553 43.5881 182.366 43.83L182.47 43.0506ZM177.311 42.6074C169.322 26.9653 153.488 17.5007 152.75 17.0686L152.353 17.747C153.071 18.1681 168.732 27.5372 176.61 42.9651L177.311 42.6074ZM152.751 17.0691L136.995 7.78625L136.596 8.46375L152.352 17.7466L152.751 17.0691ZM136.41 8.1992L138.663 19.9276L139.436 19.7792L137.182 8.0508L136.41 8.1992ZM139.206 19.4928C136.831 18.4616 134.367 17.6426 131.844 17.0455L131.663 17.8107C134.141 18.3971 136.561 19.2014 138.893 20.2141L139.206 19.4928ZM131.839 17.0444L107.772 11.6819L107.601 12.4494L131.668 17.8119L131.839 17.0444ZM107.391 12.3254L120.498 27.2145L121.088 26.6949L107.981 11.8058L107.391 12.3254ZM120.793 26.5615H120.493V27.3479H120.793V26.5615ZM120.493 26.5615C119.844 26.5615 119.336 26.58 118.989 26.5986C118.816 26.608 118.683 26.6173 118.592 26.6244C118.547 26.628 118.512 26.6309 118.488 26.6331C118.477 26.6341 118.467 26.635 118.461 26.6356C118.458 26.6359 118.455 26.6362 118.454 26.6363C118.453 26.6364 118.452 26.6365 118.452 26.6365C118.451 26.6366 118.451 26.6366 118.451 26.6366C118.451 26.6366 118.451 26.6366 118.451 26.6366C118.451 26.6366 118.451 26.6366 118.451 26.6366C118.451 26.6366 118.451 26.6366 118.49 27.0278C118.53 27.419 118.53 27.419 118.53 27.419C118.53 27.419 118.53 27.419 118.53 27.419C118.53 27.419 118.53 27.419 118.53 27.419C118.53 27.419 118.53 27.419 118.53 27.419C118.53 27.419 118.53 27.4189 118.531 27.4189C118.532 27.4188 118.534 27.4186 118.536 27.4184C118.541 27.4179 118.549 27.4172 118.559 27.4163C118.58 27.4144 118.611 27.4117 118.653 27.4084C118.738 27.4018 118.865 27.3928 119.032 27.3839C119.365 27.3659 119.859 27.3479 120.493 27.3479V26.5615ZM118.454 26.6363L99.593 28.3913L99.6659 29.1743L118.527 27.4193L118.454 26.6363ZM99.9084 28.5057C95.8994 24.4706 91.1146 21.2681 85.8352 19.0862L85.5349 19.8129C90.7182 21.9551 95.4155 25.0991 99.3505 29.0599L99.9084 28.5057ZM85.8352 19.0862C80.5559 16.9043 74.8884 15.7871 69.1659 15.7999L69.1676 16.5863C74.7867 16.5736 80.3515 17.6707 85.5349 19.8129L85.8352 19.0862ZM69.1668 15.7999C46.121 15.7999 27.3259 33.3225 27.3259 54.9169H28.1122C28.1122 33.8063 46.5041 16.5863 69.1668 16.5863V15.7999ZM27.3259 54.9169C27.3259 64.9109 31.4595 74.4506 38.6482 81.6377L39.2041 81.0816C32.1547 74.0338 28.1122 64.6909 28.1122 54.9169H27.3259ZM38.5966 81.1453C27.2871 98.5313 21.7943 122.078 21.7943 152.762H22.5807C22.5807 122.16 28.0606 98.7843 39.2557 81.5741L38.5966 81.1453ZM21.7943 152.762C21.7943 187.959 41.9929 212.847 67.5349 228.917C93.068 244.981 123.986 252.268 145.568 252.268V251.482C124.127 251.482 93.3552 244.233 67.9537 228.251C42.561 212.275 22.5807 187.607 22.5807 152.762H21.7943ZM145.568 252.268C167.15 252.268 198.068 244.981 223.601 228.917C249.143 212.847 269.342 187.959 269.342 152.762H268.556C268.556 187.607 248.575 212.275 223.183 228.251C197.781 244.233 167.009 251.482 145.568 251.482V252.268ZM269.342 152.762C269.342 122.078 263.849 98.5354 252.544 81.1494L251.885 81.5781C263.076 98.7884 268.556 122.16 268.556 152.762H269.342ZM114.004 41.4359C114.568 41.841 115.109 42.3271 115.633 42.885L116.206 42.3462C115.653 41.7585 115.075 41.2371 114.463 40.7972L114.004 41.4359ZM115.881 42.2243C113.402 42.4685 111 42.7411 108.663 43.0505L108.766 43.8301C111.093 43.522 113.486 43.2503 115.958 43.0069L115.881 42.2243ZM109.087 43.3148C107.852 39.6488 106.059 36.1898 103.772 33.0563L103.137 33.52C105.377 36.5889 107.132 39.9762 108.342 43.5659L109.087 43.3148ZM103.223 33.6063L114.003 41.4347L114.465 40.7984L103.685 32.97L103.223 33.6063ZM145.568 243.625C126.867 243.625 98.1493 237.365 74.1175 222.858C50.0948 208.356 30.8061 185.651 30.8061 152.758H30.0197C30.0197 186.015 49.5404 208.94 73.7112 223.531C97.8729 238.116 126.733 244.411 145.568 244.411V243.625ZM30.8061 152.758C30.8061 119.179 37.5427 96.0234 50.1849 80.2651L49.5716 79.773C36.7727 95.7266 30.0197 119.087 30.0197 152.758H30.8061ZM50.0959 79.6916C41.7704 74.1582 36.3376 65.1305 36.3376 54.9169H35.5513C35.5513 65.422 41.1405 74.6837 49.6606 80.3465L50.0959 79.6916ZM36.3376 54.9169C36.3376 38.1145 51.0095 24.4432 69.1668 24.4432V23.6568C50.6306 23.6568 35.5513 37.6267 35.5513 54.9169H36.3376ZM69.1668 24.4432C86.4185 24.4432 100.499 36.7925 101.858 52.4402L102.641 52.3722C101.244 36.2757 86.7824 23.6568 69.1668 23.6568V24.4432ZM102.319 52.7931C110.45 51.3222 119.246 50.4299 128.623 49.9592L128.584 49.1739C119.182 49.6457 110.351 50.5409 102.179 52.0194L102.319 52.7931ZM128.979 49.4507C127.141 43.489 124.19 37.9642 119.424 34.5252L118.963 35.1629C123.533 38.4595 126.414 43.7979 128.228 49.6824L128.979 49.4507ZM119.194 34.8441C119.224 35.236 119.224 35.236 119.224 35.2361C119.224 35.2361 119.224 35.2361 119.224 35.2361C119.224 35.2361 119.224 35.2361 119.224 35.2361C119.224 35.2361 119.224 35.2361 119.224 35.2361C119.224 35.236 119.224 35.236 119.225 35.236C119.225 35.236 119.226 35.2359 119.228 35.2358C119.231 35.2355 119.236 35.2352 119.242 35.2347C119.256 35.2338 119.276 35.2325 119.303 35.2308C119.358 35.2275 119.44 35.2231 119.548 35.2186C119.764 35.2097 120.083 35.2007 120.493 35.2007V34.4143C120.072 34.4143 119.742 34.4236 119.516 34.4329C119.402 34.4376 119.315 34.4423 119.256 34.4459C119.226 34.4477 119.204 34.4492 119.188 34.4503C119.18 34.4508 119.174 34.4512 119.17 34.4515C119.168 34.4517 119.166 34.4518 119.165 34.4519C119.165 34.4519 119.164 34.452 119.164 34.452C119.164 34.452 119.163 34.452 119.163 34.4521C119.163 34.4521 119.163 34.4521 119.163 34.4521C119.163 34.4521 119.163 34.4521 119.163 34.4521C119.163 34.4521 119.163 34.4521 119.194 34.8441ZM120.493 35.2007C122.677 35.2007 127.423 35.4657 132.803 37.4355L133.073 36.697C127.579 34.6855 122.735 34.4143 120.493 34.4143V35.2007ZM132.938 37.0662C133.327 37.1251 133.327 37.125 133.327 37.1248C133.327 37.1247 133.327 37.1245 133.327 37.1243C133.327 37.1239 133.327 37.1234 133.327 37.1228C133.327 37.1216 133.328 37.1199 133.328 37.1178C133.329 37.1136 133.329 37.1077 133.331 37.1001C133.333 37.0848 133.336 37.0626 133.339 37.0339C133.347 36.9766 133.357 36.8931 133.368 36.7858C133.391 36.5712 133.419 36.2614 133.438 35.8757C133.477 35.1047 133.485 34.0274 133.361 32.7991C133.113 30.3502 132.335 27.2589 130.182 24.8139L129.591 25.3336C131.592 27.6051 132.339 30.5101 132.579 32.8783C132.698 34.0586 132.69 35.0951 132.653 35.8357C132.634 36.2058 132.608 36.5012 132.586 36.703C132.576 36.8039 132.566 36.8813 132.56 36.9328C132.556 36.9586 132.554 36.9779 132.552 36.9904C132.551 36.9967 132.55 37.0012 132.55 37.0041C132.55 37.0055 132.55 37.0065 132.549 37.007C132.549 37.0073 132.549 37.0075 132.549 37.0075C132.549 37.0076 132.549 37.0075 132.549 37.0075C132.549 37.0075 132.549 37.0074 132.938 37.0662ZM129.887 25.0737C129.801 25.4575 129.801 25.4575 129.801 25.4575C129.801 25.4575 129.801 25.4575 129.801 25.4575C129.801 25.4576 129.802 25.4577 129.802 25.4578C129.803 25.458 129.805 25.4584 129.807 25.4589C129.812 25.46 129.819 25.4617 129.829 25.4639C129.849 25.4684 129.878 25.4754 129.917 25.4848C129.995 25.5035 130.112 25.5322 130.262 25.5712C130.563 25.6493 131.001 25.7688 131.544 25.934C132.629 26.2644 134.134 26.7766 135.805 27.5032C139.157 28.9601 143.142 31.2616 145.793 34.6516L146.413 34.1672C143.643 30.6265 139.52 28.2602 136.119 26.782C134.414 26.041 132.88 25.5188 131.773 25.1817C131.218 25.0131 130.77 24.8906 130.46 24.81C130.304 24.7698 130.183 24.74 130.101 24.7201C130.06 24.7102 130.028 24.7028 130.006 24.6978C129.995 24.6953 129.987 24.6934 129.981 24.6921C129.979 24.6914 129.976 24.6909 129.975 24.6906C129.974 24.6904 129.973 24.6903 129.973 24.6902C129.973 24.6901 129.972 24.6901 129.972 24.6901C129.972 24.69 129.972 24.69 129.887 25.0737ZM146.103 34.4094C146.424 34.6358 146.424 34.6357 146.424 34.6355C146.425 34.6355 146.425 34.6353 146.425 34.6351C146.425 34.6348 146.425 34.6345 146.426 34.634C146.426 34.6332 146.427 34.632 146.428 34.6306C146.43 34.6277 146.433 34.6237 146.436 34.6186C146.443 34.6085 146.453 34.5939 146.466 34.5751C146.491 34.5373 146.527 34.4824 146.572 34.4111C146.662 34.2685 146.788 34.0603 146.935 33.7932C147.228 33.2593 147.607 32.4883 147.95 31.5341C148.635 29.6279 149.186 26.9744 148.619 24.0167L147.847 24.1645C148.379 26.9431 147.864 29.449 147.21 31.268C146.883 32.1766 146.523 32.9097 146.246 33.4143C146.107 33.6664 145.989 33.861 145.907 33.9915C145.866 34.0567 145.834 34.1058 145.812 34.138C145.801 34.1541 145.793 34.1659 145.788 34.1735C145.785 34.1772 145.784 34.1799 145.782 34.1815C145.782 34.1823 145.782 34.1828 145.781 34.183C145.781 34.1832 145.781 34.1832 145.781 34.1832C145.781 34.1832 145.781 34.1831 145.781 34.1831C145.781 34.183 145.781 34.1829 146.103 34.4094ZM148.233 24.0906C148.034 24.4293 148.034 24.4293 148.034 24.4294C148.034 24.4294 148.034 24.4295 148.034 24.4296C148.034 24.4298 148.035 24.4302 148.036 24.4308C148.038 24.4319 148.041 24.4336 148.045 24.4359C148.052 24.4405 148.064 24.4476 148.08 24.4571C148.112 24.4761 148.159 24.5049 148.222 24.5432C148.347 24.6199 148.532 24.7349 148.77 24.8872C149.246 25.1919 149.934 25.6458 150.779 26.2405C152.469 27.43 154.784 29.1819 157.283 31.4289C162.286 35.9279 167.997 42.3882 170.916 50.2718L171.654 49.9988C168.671 41.9452 162.856 35.3832 157.809 30.8442C155.282 28.5722 152.941 26.801 151.231 25.5974C150.376 24.9955 149.678 24.5352 149.194 24.2249C148.951 24.0697 148.762 23.952 148.633 23.8729C148.568 23.8333 148.519 23.8033 148.485 23.7831C148.468 23.773 148.455 23.7653 148.447 23.7601C148.442 23.7575 148.439 23.7555 148.437 23.7542C148.436 23.7535 148.435 23.753 148.434 23.7526C148.434 23.7524 148.433 23.7522 148.433 23.7521C148.433 23.752 148.433 23.7519 148.233 24.0906ZM171.251 50.5271C177.394 51.0503 183.254 51.7923 188.809 52.7972L188.949 52.0234C183.366 51.0134 177.481 50.2685 171.318 49.7436L171.251 50.5271ZM189.271 52.4443C190.629 36.7967 204.722 24.4472 221.978 24.4472V23.6609C204.358 23.6609 189.884 36.2795 188.487 52.3763L189.271 52.4443ZM221.978 24.4472C240.127 24.4472 254.807 38.1146 254.807 54.9209H255.593C255.593 37.6267 240.506 23.6609 221.978 23.6609V24.4472ZM254.807 54.9209C254.807 65.1384 249.366 74.1662 241.036 79.6997L241.472 80.3547C249.996 74.692 255.593 65.4304 255.593 54.9209H254.807ZM240.947 80.2733C253.594 96.0235 260.33 119.183 260.33 152.762H261.117C261.117 119.091 254.364 95.7265 241.561 79.781L240.947 80.2733ZM260.33 152.762C260.33 185.655 241.043 208.359 217.02 222.86C192.989 237.366 164.271 243.625 145.568 243.625V244.411C164.406 244.411 193.266 238.117 217.427 223.533C241.597 208.943 261.117 186.019 261.117 152.762H260.33Z" fill="white" mask="url(#path-1-outside-1_620_7977)"/>
<mask id="path-3-outside-2_620_7977" maskUnits="userSpaceOnUse" x="48.1875" y="35.2822" width="195" height="191" fill="black">
<rect fill="white" x="48.1875" y="35.2822" width="195" height="191"/>
<path d="M58.8935 70.8338C67.2463 63.8341 77.3471 58.8738 89.0765 55.4897C89.0806 55.2947 89.1382 55.116 89.1382 54.921C89.1382 44.6266 80.2013 36.2822 69.167 36.2822C58.1285 36.2822 49.1875 44.6266 49.1875 54.921C49.1834 61.7013 53.0987 67.5716 58.8935 70.8338M232.243 70.8378C238.034 67.5716 241.949 61.7013 241.949 54.921C241.949 44.6266 233.004 36.2822 221.978 36.2822C210.931 36.2822 202.003 44.6266 202.003 54.921C202.003 55.116 202.056 55.2947 202.06 55.4897C213.794 58.8738 223.89 63.8341 232.243 70.8378ZM145.725 219.802C136.286 219.802 128.632 222.024 128.632 224.758C128.632 225.132 128.768 225.834 129.04 225.834H162.336C162.653 225.834 162.821 225.152 162.821 224.758C162.817 222.028 155.172 219.802 145.725 219.802ZM110.092 184.815C110.092 196.008 138.326 205.932 145.568 205.932C152.811 205.932 181.044 196.008 181.044 184.815C181.044 170.759 165.165 168.049 145.568 168.049C125.988 168.049 110.092 170.759 110.092 184.815Z"/>
</mask>
<path d="M58.8935 70.8338C67.2463 63.8341 77.3471 58.8738 89.0765 55.4897C89.0806 55.2947 89.1382 55.116 89.1382 54.921C89.1382 44.6266 80.2013 36.2822 69.167 36.2822C58.1285 36.2822 49.1875 44.6266 49.1875 54.921C49.1834 61.7013 53.0987 67.5716 58.8935 70.8338M232.243 70.8378C238.034 67.5716 241.949 61.7013 241.949 54.921C241.949 44.6266 233.004 36.2822 221.978 36.2822C210.931 36.2822 202.003 44.6266 202.003 54.921C202.003 55.116 202.056 55.2947 202.06 55.4897C213.794 58.8738 223.89 63.8341 232.243 70.8378ZM145.725 219.802C136.286 219.802 128.632 222.024 128.632 224.758C128.632 225.132 128.768 225.834 129.04 225.834H162.336C162.653 225.834 162.821 225.152 162.821 224.758C162.817 222.028 155.172 219.802 145.725 219.802ZM110.092 184.815C110.092 196.008 138.326 205.932 145.568 205.932C152.811 205.932 181.044 196.008 181.044 184.815C181.044 170.759 165.165 168.049 145.568 168.049C125.988 168.049 110.092 170.759 110.092 184.815Z" fill="white"/>
<path d="M89.0765 55.4897L89.1855 55.8675L89.4635 55.7873L89.4696 55.498L89.0765 55.4897ZM49.1875 54.921L49.5807 54.9212V54.921H49.1875ZM232.243 70.8378L231.991 71.1391L232.199 71.3141L232.437 71.1803L232.243 70.8378ZM202.06 55.4897L201.667 55.498L201.673 55.7873L201.951 55.8675L202.06 55.4897ZM162.821 224.758L163.214 224.758L163.214 224.757L162.821 224.758ZM59.146 71.1351C67.4482 64.1779 77.4966 59.2399 89.1855 55.8675L88.9675 55.112C77.1976 58.5077 67.0445 63.4903 58.6409 70.5324L59.146 71.1351ZM89.4696 55.498C89.471 55.4325 89.4813 55.3667 89.4971 55.2673C89.5117 55.1763 89.5314 55.0539 89.5314 54.921H88.745C88.745 54.9831 88.7359 55.0475 88.7206 55.1434C88.7067 55.2309 88.6861 55.352 88.6834 55.4814L89.4696 55.498ZM89.5314 54.921C89.5314 44.3844 80.3925 35.889 69.167 35.889V36.6754C80.0101 36.6754 88.745 44.8688 88.745 54.921H89.5314ZM69.167 35.889C57.9375 35.889 48.7943 44.3842 48.7943 54.921H49.5807C49.5807 44.869 58.3195 36.6754 69.167 36.6754V35.889ZM48.7943 54.9207C48.7901 61.8609 52.7983 67.8537 58.7006 71.1764L59.0863 70.4912C53.399 67.2895 49.5767 61.5416 49.5807 54.9212L48.7943 54.9207ZM232.437 71.1803C238.334 67.8536 242.342 61.861 242.342 54.921H241.556C241.556 61.5416 237.734 67.2896 232.05 70.4954L232.437 71.1803ZM242.342 54.921C242.342 44.3843 233.195 35.889 221.978 35.889V36.6754C232.813 36.6754 241.556 44.8689 241.556 54.921H242.342ZM221.978 35.889C210.74 35.889 201.61 44.3844 201.61 54.921H202.396C202.396 44.8688 211.123 36.6754 221.978 36.6754V35.889ZM201.61 54.921C201.61 55.0514 201.628 55.1718 201.641 55.2631C201.656 55.3622 201.666 55.43 201.667 55.498L202.453 55.4814C202.451 55.3544 202.432 55.2354 202.419 55.1476C202.405 55.052 202.396 54.9856 202.396 54.921H201.61ZM201.951 55.8675C213.644 59.2399 223.689 64.1779 231.991 71.1391L232.496 70.5366C224.092 63.4903 213.943 58.5077 202.169 55.1119L201.951 55.8675ZM145.725 219.408C140.979 219.408 136.667 219.967 133.529 220.877C131.963 221.331 130.667 221.88 129.753 222.506C128.853 223.123 128.239 223.877 128.239 224.758H129.026C129.026 224.271 129.369 223.723 130.198 223.154C131.014 222.595 132.222 222.075 133.749 221.632C136.797 220.748 141.032 220.195 145.725 220.195V219.408ZM128.239 224.758C128.239 224.98 128.278 225.289 128.358 225.551C128.398 225.681 128.455 225.825 128.541 225.946C128.622 226.061 128.784 226.228 129.04 226.228V225.441C129.159 225.441 129.203 225.52 129.182 225.491C129.166 225.469 129.139 225.414 129.11 225.322C129.055 225.139 129.026 224.909 129.026 224.758H128.239ZM129.04 226.228H162.336V225.441H129.04V226.228ZM162.336 226.228C162.57 226.228 162.74 226.098 162.843 225.978C162.946 225.859 163.016 225.714 163.066 225.581C163.165 225.314 163.214 224.998 163.214 224.758H162.428C162.428 224.911 162.393 225.134 162.329 225.307C162.296 225.394 162.265 225.444 162.247 225.465C162.23 225.485 162.26 225.441 162.336 225.441V226.228ZM163.214 224.757C163.213 223.878 162.599 223.124 161.699 222.507C160.785 221.882 159.49 221.333 157.924 220.878C154.786 219.968 150.474 219.408 145.725 219.408V220.195C150.422 220.195 154.656 220.749 157.704 221.634C159.231 222.077 160.438 222.597 161.254 223.156C162.084 223.724 162.427 224.273 162.428 224.758L163.214 224.757ZM109.699 184.815C109.699 187.781 111.564 190.598 114.353 193.128C117.151 195.667 120.943 197.976 124.942 199.924C128.945 201.874 133.173 203.472 136.856 204.583C140.528 205.69 143.697 206.325 145.568 206.325V205.539C143.819 205.539 140.742 204.934 137.083 203.83C133.436 202.73 129.248 201.148 125.287 199.217C121.322 197.286 117.603 195.015 114.881 192.545C112.149 190.067 110.486 187.446 110.486 184.815H109.699ZM145.568 206.325C147.44 206.325 150.609 205.69 154.28 204.583C157.964 203.472 162.192 201.874 166.195 199.924C170.194 197.976 173.986 195.667 176.784 193.128C179.572 190.598 181.438 187.781 181.438 184.815H180.651C180.651 187.446 178.987 190.067 176.256 192.545C173.534 195.015 169.815 197.286 165.85 199.217C161.889 201.148 157.7 202.73 154.053 203.83C150.394 204.934 147.318 205.539 145.568 205.539V206.325ZM181.438 184.815C181.438 181.222 180.42 178.327 178.563 176.019C176.711 173.717 174.047 172.027 170.795 170.794C164.303 168.332 155.37 167.656 145.568 167.656V168.443C155.364 168.443 164.169 169.122 170.516 171.529C173.683 172.73 176.213 174.353 177.951 176.512C179.684 178.666 180.651 181.381 180.651 184.815H181.438ZM145.568 167.656C135.775 167.656 126.842 168.332 120.348 170.794C117.095 172.027 114.429 173.717 112.576 176.019C110.717 178.327 109.699 181.221 109.699 184.815H110.486C110.486 181.381 111.454 178.666 113.188 176.512C114.927 174.353 117.458 172.73 120.627 171.529C126.976 169.122 135.781 168.443 145.568 168.443V167.656Z" fill="white" mask="url(#path-3-outside-2_620_7977)"/>
<mask id="path-5-outside-3_620_7977" maskUnits="userSpaceOnUse" x="40.0303" y="126.378" width="211" height="115" fill="black">
<rect fill="white" x="40.0303" y="126.378" width="211" height="115"/>
<path d="M249.714 128.428C232.317 128.684 214.991 129.391 197.627 129.744C180.271 130.126 162.899 130.309 145.548 130.276C128.186 130.317 110.824 130.102 93.4689 129.63C84.7928 129.387 76.1189 129.074 67.4479 128.692C58.7769 128.34 50.1096 127.903 41.4475 127.38C41.2706 127.364 41.0814 127.485 41.0444 127.656C41.0304 127.704 41.0267 127.754 41.0337 127.803C41.0408 127.852 41.0583 127.899 41.0851 127.941C41.112 127.983 41.1475 128.018 41.1894 128.046C41.2313 128.073 41.2786 128.091 41.3282 128.099L41.3899 128.111C51.0876 130.248 60.8594 131.832 70.6681 133.108C70.1311 133.89 69.8616 134.821 69.899 135.765C69.899 141.708 76.1586 146.531 83.874 146.531C91.54 146.531 97.7461 141.765 97.8283 135.879C107.736 136.626 117.66 137.106 127.588 137.386C110.384 143.581 92.0952 158.267 92.0952 183.804C92.0952 230.543 113.551 240.118 145.766 240.118C177.972 240.118 199.424 230.543 199.424 183.804C199.424 158.287 181.172 143.605 163.985 137.402C173.774 137.139 183.557 136.665 193.325 135.98C193.481 141.822 199.65 146.531 207.275 146.531C214.978 146.531 221.242 141.704 221.242 135.765C221.242 134.757 220.999 134.034 220.662 133.417C221.715 133.299 222.776 133.197 223.829 133.067C228.143 132.503 232.482 131.942 236.784 131.268L243.257 130.26L249.722 129.171L249.805 129.155C249.893 129.14 249.973 129.096 250.031 129.029C250.089 128.962 250.123 128.878 250.125 128.79C250.117 128.59 249.936 128.428 249.714 128.428M193.255 183.808C193.255 225.981 175.842 234.232 145.766 234.232C115.682 234.232 98.2643 225.981 98.2643 183.808C98.2643 152.669 129.2 139.746 145.766 139.746C162.319 139.746 193.255 152.669 193.255 183.808"/>
</mask>
<path d="M249.714 128.428C232.317 128.684 214.991 129.391 197.627 129.744C180.271 130.126 162.899 130.309 145.548 130.276C128.186 130.317 110.824 130.102 93.4689 129.63C84.7928 129.387 76.1189 129.074 67.4479 128.692C58.7769 128.34 50.1096 127.903 41.4475 127.38C41.2706 127.364 41.0814 127.485 41.0444 127.656C41.0304 127.704 41.0267 127.754 41.0337 127.803C41.0408 127.852 41.0583 127.899 41.0851 127.941C41.112 127.983 41.1475 128.018 41.1894 128.046C41.2313 128.073 41.2786 128.091 41.3282 128.099L41.3899 128.111C51.0876 130.248 60.8594 131.832 70.6681 133.108C70.1311 133.89 69.8616 134.821 69.899 135.765C69.899 141.708 76.1586 146.531 83.874 146.531C91.54 146.531 97.7461 141.765 97.8283 135.879C107.736 136.626 117.66 137.106 127.588 137.386C110.384 143.581 92.0952 158.267 92.0952 183.804C92.0952 230.543 113.551 240.118 145.766 240.118C177.972 240.118 199.424 230.543 199.424 183.804C199.424 158.287 181.172 143.605 163.985 137.402C173.774 137.139 183.557 136.665 193.325 135.98C193.481 141.822 199.65 146.531 207.275 146.531C214.978 146.531 221.242 141.704 221.242 135.765C221.242 134.757 220.999 134.034 220.662 133.417C221.715 133.299 222.776 133.197 223.829 133.067C228.143 132.503 232.482 131.942 236.784 131.268L243.257 130.26L249.722 129.171L249.805 129.155C249.893 129.14 249.973 129.096 250.031 129.029C250.089 128.962 250.123 128.878 250.125 128.79C250.117 128.59 249.936 128.428 249.714 128.428M193.255 183.808C193.255 225.981 175.842 234.232 145.766 234.232C115.682 234.232 98.2643 225.981 98.2643 183.808C98.2643 152.669 129.2 139.746 145.766 139.746C162.319 139.746 193.255 152.669 193.255 183.808" fill="white"/>
<path d="M197.627 129.744L197.619 129.351L197.618 129.351L197.627 129.744ZM145.548 130.276L145.549 129.883L145.547 129.883L145.548 130.276ZM93.4689 129.63L93.4578 130.024L93.4582 130.024L93.4689 129.63ZM67.4479 128.692L67.4652 128.299L67.4638 128.299L67.4479 128.692ZM41.4475 127.38L41.4115 127.772L41.4238 127.772L41.4475 127.38ZM41.0444 127.656L41.4215 127.767L41.4256 127.754L41.4287 127.739L41.0444 127.656ZM41.3282 128.099L41.4044 127.713L41.397 127.712L41.3895 127.711L41.3282 128.099ZM41.3899 128.111L41.4745 127.727L41.4661 127.725L41.3899 128.111ZM70.6681 133.108L70.9922 133.331L71.356 132.801L70.7188 132.718L70.6681 133.108ZM69.899 135.765H70.2922V135.757L70.2919 135.749L69.899 135.765ZM97.8283 135.879L97.8579 135.487L97.441 135.455L97.4352 135.873L97.8283 135.879ZM127.588 137.386L127.721 137.756L127.599 136.993L127.588 137.386ZM163.985 137.402L163.974 137.009L163.852 137.772L163.985 137.402ZM193.325 135.98L193.718 135.97L193.707 135.559L193.297 135.588L193.325 135.98ZM220.662 133.417L220.618 133.026L220.036 133.091L220.317 133.605L220.662 133.417ZM223.829 133.067L223.877 133.458L223.88 133.457L223.829 133.067ZM236.784 131.268L236.723 130.879L236.723 130.879L236.784 131.268ZM243.257 130.26L243.318 130.649L243.322 130.648L243.257 130.26ZM249.722 129.171L249.788 129.559L249.798 129.557L249.722 129.171ZM249.805 129.155L249.739 128.767L249.728 128.769L249.805 129.155ZM250.125 128.79L250.518 128.801L250.519 128.787L250.518 128.773L250.125 128.79ZM249.708 128.035C232.317 128.291 214.965 128.998 197.619 129.351L197.635 130.137C215.016 129.784 232.317 129.077 249.72 128.821L249.708 128.035ZM197.618 129.351C180.266 129.733 162.897 129.916 145.549 129.883L145.547 130.67C162.902 130.702 180.277 130.519 197.635 130.137L197.618 129.351ZM145.547 129.883C128.189 129.924 110.831 129.709 93.4795 129.237L93.4582 130.024C110.817 130.495 128.183 130.71 145.549 130.67L145.547 129.883ZM93.4799 129.237C84.8059 128.994 76.1341 128.681 67.4652 128.299L67.4306 129.085C76.1036 129.467 84.7797 129.78 93.4578 130.024L93.4799 129.237ZM67.4638 128.299C58.7954 127.947 50.1307 127.51 41.4711 126.987L41.4238 127.772C50.0885 128.295 58.7583 128.733 67.4319 129.085L67.4638 128.299ZM41.4834 126.988C41.1379 126.957 40.7452 127.181 40.6602 127.573L41.4287 127.739C41.4252 127.756 41.419 127.766 41.4156 127.771C41.4123 127.775 41.4109 127.776 41.4129 127.774C41.4148 127.773 41.4172 127.772 41.4188 127.771C41.4203 127.771 41.418 127.772 41.4115 127.771L41.4834 126.988ZM40.6673 127.545C40.6373 127.646 40.6295 127.753 40.6445 127.858L41.423 127.747C41.4239 127.754 41.4234 127.761 41.4215 127.767L40.6673 127.545ZM40.6445 127.858C40.6595 127.963 40.697 128.064 40.7541 128.153L41.4162 127.729C41.4196 127.734 41.422 127.74 41.423 127.747L40.6445 127.858ZM40.7541 128.153C40.8112 128.242 40.8866 128.318 40.975 128.375L41.4038 127.716C41.4084 127.719 41.4127 127.723 41.4162 127.729L40.7541 128.153ZM40.975 128.375C41.0634 128.433 41.1629 128.471 41.2669 128.487L41.3895 127.711C41.3943 127.711 41.3992 127.713 41.4038 127.716L40.975 128.375ZM41.252 128.485L41.3137 128.497L41.4661 127.725L41.4044 127.713L41.252 128.485ZM41.3053 128.495C51.0171 130.635 60.8007 132.221 70.6174 133.498L70.7188 132.718C60.918 131.444 51.1581 129.861 41.4745 127.727L41.3053 128.495ZM70.344 132.885C69.7592 133.737 69.4654 134.751 69.5062 135.78L70.2919 135.749C70.2579 134.89 70.503 134.043 70.9922 133.331L70.344 132.885ZM69.5059 135.765C69.5059 142.015 76.0429 146.924 83.874 146.924V146.137C76.2742 146.137 70.2922 141.402 70.2922 135.765H69.5059ZM83.874 146.924C91.6569 146.924 98.135 142.072 98.2215 135.884L97.4352 135.873C97.3571 141.458 91.4231 146.137 83.874 146.137V146.924ZM97.7987 136.271C107.713 137.019 117.643 137.498 127.577 137.779L127.599 136.993C117.676 136.713 107.758 136.234 97.8579 135.487L97.7987 136.271ZM127.455 137.016C110.166 143.242 91.702 158.037 91.702 183.804H92.4884C92.4884 158.497 110.603 143.92 127.721 137.756L127.455 137.016ZM91.702 183.804C91.702 207.222 97.0762 221.439 106.591 229.784C116.095 238.119 129.638 240.511 145.766 240.511V239.725C129.679 239.725 116.387 237.33 107.109 229.193C97.8422 221.065 92.4884 207.125 92.4884 183.804H91.702ZM145.766 240.511C161.89 240.511 175.43 238.119 184.932 229.784C194.444 221.439 199.817 207.222 199.817 183.804H199.031C199.031 207.125 193.678 221.065 184.413 229.193C175.137 237.33 161.849 239.725 145.766 239.725V240.511ZM199.817 183.804C199.817 158.057 181.391 143.266 164.119 137.032L163.852 137.772C180.953 143.945 199.031 158.517 199.031 183.804H199.817ZM163.996 137.795C173.791 137.532 183.578 137.058 193.352 136.372L193.297 135.588C183.535 136.273 173.758 136.746 163.974 137.009L163.996 137.795ZM192.932 135.991C193.096 142.13 199.533 146.924 207.275 146.924V146.137C199.768 146.137 193.866 141.514 193.718 135.97L192.932 135.991ZM207.275 146.924C211.206 146.924 214.784 145.693 217.387 143.686C219.991 141.68 221.635 138.882 221.635 135.765H220.849C220.849 138.587 219.361 141.172 216.907 143.064C214.453 144.955 211.047 146.137 207.275 146.137V146.924ZM221.635 135.765C221.635 134.685 221.373 133.898 221.007 133.228L220.317 133.605C220.626 134.171 220.849 134.829 220.849 135.765H221.635ZM220.706 133.807C221.749 133.691 222.822 133.588 223.877 133.458L223.781 132.677C222.729 132.807 221.681 132.907 220.618 133.026L220.706 133.807ZM223.88 133.457C228.193 132.893 232.537 132.331 236.845 131.656L236.723 130.879C232.427 131.553 228.093 132.113 223.778 132.678L223.88 133.457ZM236.844 131.656L243.318 130.649L243.197 129.872L236.723 130.879L236.844 131.656ZM243.322 130.648L249.788 129.559L249.657 128.784L243.192 129.872L243.322 130.648ZM249.798 129.557L249.881 129.541L249.728 128.769L249.646 128.786L249.798 129.557ZM249.87 129.543C250.047 129.513 250.208 129.423 250.327 129.288L249.735 128.77C249.737 128.768 249.738 128.768 249.739 128.768L249.87 129.543ZM250.327 129.288C250.445 129.153 250.513 128.981 250.518 128.801L249.732 128.778C249.732 128.774 249.734 128.771 249.735 128.77L250.327 129.288ZM250.518 128.773C250.5 128.335 250.117 128.035 249.714 128.035V128.821C249.729 128.821 249.737 128.826 249.739 128.829C249.74 128.83 249.739 128.829 249.737 128.825C249.735 128.821 249.733 128.814 249.732 128.806L250.518 128.773ZM192.862 183.808C192.862 204.857 188.513 217.321 180.525 224.543C172.529 231.772 160.79 233.839 145.766 233.839V234.625C160.818 234.625 172.823 232.566 181.053 225.126C189.29 217.679 193.648 204.932 193.648 183.808H192.862ZM145.766 233.839C130.738 233.839 118.995 231.772 110.997 224.543C103.007 217.321 98.6574 204.857 98.6574 183.808H97.8711C97.8711 204.932 102.23 217.679 110.47 225.126C118.701 232.566 130.71 234.625 145.766 234.625V233.839ZM98.6574 183.808C98.6574 168.389 106.31 157.483 116.034 150.418C125.771 143.344 137.566 140.139 145.766 140.139V139.353C137.4 139.353 125.444 142.61 115.572 149.782C105.687 156.963 97.8711 168.088 97.8711 183.808H98.6574ZM145.766 140.139C153.96 140.139 165.751 143.344 175.487 150.418C185.21 157.483 192.862 168.389 192.862 183.808H193.648C193.648 168.088 185.833 156.963 175.949 149.782C166.079 142.61 154.126 139.353 145.766 139.353V140.139Z" fill="white" mask="url(#path-5-outside-3_620_7977)"/>
</g>
</svg>
